<?xml version="1.0" standalone="no"?>
<!DOCTYPE svg PUBLIC "-//W3C//DTD SVG 20010904//EN"
 "http://www.w3.org/TR/2001/REC-SVG-20010904/DTD/svg10.dtd">
<svg version="1.0" xmlns="http://www.w3.org/2000/svg"
 width="128.000000pt" height="128.000000pt" viewBox="0 0 128.000000 128.000000"
 preserveAspectRatio="xMidYMid meet">

<g transform="translate(0.000000,128.000000) scale(0.100000,-0.100000)"
fill="#000000" stroke="none">
<path d="M762 974 c2 -121 0 -170 -7 -157 -22 40 -83 91 -120 102 -111 31
-210 -12 -262 -112 -25 -48 -27 -64 -31 -195 -5 -186 1 -237 41 -303 82 -137
279 -145 358 -15 l19 31 0 -57 0 -58 80 0 80 0 0 470 0 470 -80 0 -81 0 3
-176z m-39 -223 l32 -31 0 -156 0 -156 -37 -34 c-32 -28 -45 -34 -84 -34 -56
0 -99 24 -119 66 -21 45 -21 273 0 318 23 48 60 67 123 63 44 -3 59 -9 85 -36z"/>
</g>
</svg>
