<?xml version="1.0" encoding="UTF-8"?><svg id="Layer_1" xmlns="http://www.w3.org/2000/svg" viewBox="0 0 29.2 55.76"><defs><style>.cls-1{isolation:isolate;}.cls-2{fill:#231f20;stroke-width:0px;}.cls-3{fill:none;stroke:#fff;stroke-miterlimit:10;stroke-width:4px;}</style></defs><g class="cls-1"><g class="cls-1"><path class="cls-2" d="m7.25,20.38c-1.12,0-2.03-.4-2.72-1.2-.69-.8-1.04-1.87-1.04-3.21v-3.13c0-1.36.34-2.44,1.03-3.23.69-.8,1.6-1.2,2.73-1.2.8,0,1.47.2,2.03.61.55.41.94.97,1.17,1.7l-.08-2.65v-3.23h2.62v15.33h-2.56v-2.1c-.21.73-.59,1.29-1.13,1.7-.55.41-1.23.61-2.04.61Zm.99-2.27c.67,0,1.19-.2,1.56-.61s.56-.98.56-1.72v-2.77c0-.74-.19-1.32-.56-1.72s-.89-.61-1.56-.61-1.19.18-1.56.55c-.37.36-.56.92-.56,1.68v2.98c0,.76.19,1.32.56,1.68.37.36.89.55,1.56.55Z"/><path class="cls-2" d="m19.85,20.38c-1.12,0-2.03-.4-2.72-1.2-.69-.8-1.04-1.87-1.04-3.21v-3.13c0-1.36.34-2.44,1.03-3.23.69-.8,1.6-1.2,2.73-1.2.8,0,1.47.2,2.03.61.55.41.94.97,1.17,1.7l-.08-2.65v-3.23h2.62v15.33h-2.56v-2.1c-.21.73-.59,1.29-1.13,1.7-.55.41-1.22.61-2.04.61Zm.99-2.27c.67,0,1.19-.2,1.56-.61s.56-.98.56-1.72v-2.77c0-.74-.19-1.32-.56-1.72s-.89-.61-1.56-.61-1.19.18-1.56.55c-.37.36-.56.92-.56,1.68v2.98c0,.76.18,1.32.56,1.68.37.36.89.55,1.56.55Z"/></g><g class="cls-1"><path class="cls-2" d="m4.04,45.37v-11.55h2.56v2.25c.14-.76.49-1.35,1.04-1.8.55-.44,1.27-.66,2.15-.66,1.18,0,2.09.38,2.75,1.13.66.76.99,1.81.99,3.17v1.09h-2.62v-.97c0-.7-.18-1.24-.55-1.61-.36-.37-.88-.56-1.55-.56s-1.23.21-1.6.63c-.36.42-.55,1.02-.55,1.79v7.08h-2.62Z"/><path class="cls-2" d="m16.2,45.37v-2.37h3.95v-6.8h-3.53v-2.37h6.15v9.18h3.55v2.37h-10.12Zm5.08-13.48c-.53,0-.95-.14-1.26-.41-.31-.27-.46-.64-.46-1.1s.15-.83.46-1.1c.31-.27.73-.41,1.26-.41s.95.14,1.26.41c.31.27.46.64.46,1.1s-.15.83-.46,1.1c-.31.27-.73.41-1.26.41Z"/></g></g><g class="cls-1"><g class="cls-1"><path class="cls-3" d="m7.25,20.38c-1.12,0-2.03-.4-2.72-1.2-.69-.8-1.04-1.87-1.04-3.21v-3.13c0-1.36.34-2.44,1.03-3.23.69-.8,1.6-1.2,2.73-1.2.8,0,1.47.2,2.03.61.55.41.94.97,1.17,1.7l-.08-2.65v-3.23h2.62v15.33h-2.56v-2.1c-.21.73-.59,1.29-1.13,1.7-.55.41-1.23.61-2.04.61Zm.99-2.27c.67,0,1.19-.2,1.56-.61s.56-.98.56-1.72v-2.77c0-.74-.19-1.32-.56-1.72s-.89-.61-1.56-.61-1.19.18-1.56.55c-.37.36-.56.92-.56,1.68v2.98c0,.76.19,1.32.56,1.68.37.36.89.55,1.56.55Z"/><path class="cls-3" d="m19.85,20.38c-1.12,0-2.03-.4-2.72-1.2-.69-.8-1.04-1.87-1.04-3.21v-3.13c0-1.36.34-2.44,1.03-3.23.69-.8,1.6-1.2,2.73-1.2.8,0,1.47.2,2.03.61.55.41.94.97,1.17,1.7l-.08-2.65v-3.23h2.62v15.33h-2.56v-2.1c-.21.73-.59,1.29-1.13,1.7-.55.41-1.22.61-2.04.61Zm.99-2.27c.67,0,1.19-.2,1.56-.61s.56-.98.56-1.72v-2.77c0-.74-.19-1.32-.56-1.72s-.89-.61-1.56-.61-1.19.18-1.56.55c-.37.36-.56.92-.56,1.68v2.98c0,.76.18,1.32.56,1.68.37.36.89.55,1.56.55Z"/></g><g class="cls-1"><path class="cls-3" d="m4.04,45.37v-11.55h2.56v2.25c.14-.76.49-1.35,1.04-1.8.55-.44,1.27-.66,2.15-.66,1.18,0,2.09.38,2.75,1.13.66.76.99,1.81.99,3.17v1.09h-2.62v-.97c0-.7-.18-1.24-.55-1.61-.36-.37-.88-.56-1.55-.56s-1.23.21-1.6.63c-.36.42-.55,1.02-.55,1.79v7.08h-2.62Z"/><path class="cls-3" d="m16.2,45.37v-2.37h3.95v-6.8h-3.53v-2.37h6.15v9.18h3.55v2.37h-10.12Zm5.08-13.48c-.53,0-.95-.14-1.26-.41-.31-.27-.46-.64-.46-1.1s.15-.83.46-1.1c.31-.27.73-.41,1.26-.41s.95.14,1.26.41c.31.27.46.64.46,1.1s-.15.83-.46,1.1c-.31.27-.73.41-1.26.41Z"/></g></g><g class="cls-1"><g class="cls-1"><path class="cls-2" d="m7.25,20.38c-1.12,0-2.03-.4-2.72-1.2-.69-.8-1.04-1.87-1.04-3.21v-3.13c0-1.36.34-2.44,1.03-3.23.69-.8,1.6-1.2,2.73-1.2.8,0,1.47.2,2.03.61.55.41.94.97,1.17,1.7l-.08-2.65v-3.23h2.62v15.33h-2.56v-2.1c-.21.73-.59,1.29-1.13,1.7-.55.41-1.23.61-2.04.61Zm.99-2.27c.67,0,1.19-.2,1.56-.61s.56-.98.56-1.72v-2.77c0-.74-.19-1.32-.56-1.72s-.89-.61-1.56-.61-1.19.18-1.56.55c-.37.36-.56.92-.56,1.68v2.98c0,.76.19,1.32.56,1.68.37.36.89.55,1.56.55Z"/><path class="cls-2" d="m19.85,20.38c-1.12,0-2.03-.4-2.72-1.2-.69-.8-1.04-1.87-1.04-3.21v-3.13c0-1.36.34-2.44,1.03-3.23.69-.8,1.6-1.2,2.73-1.2.8,0,1.47.2,2.03.61.55.41.94.97,1.17,1.7l-.08-2.65v-3.23h2.62v15.33h-2.56v-2.1c-.21.73-.59,1.29-1.13,1.7-.55.41-1.22.61-2.04.61Zm.99-2.27c.67,0,1.19-.2,1.56-.61s.56-.98.56-1.72v-2.77c0-.74-.19-1.32-.56-1.72s-.89-.61-1.56-.61-1.19.18-1.56.55c-.37.36-.56.92-.56,1.68v2.98c0,.76.18,1.32.56,1.68.37.36.89.55,1.56.55Z"/></g><g class="cls-1"><path class="cls-2" d="m4.04,45.37v-11.55h2.56v2.25c.14-.76.49-1.35,1.04-1.8.55-.44,1.27-.66,2.15-.66,1.18,0,2.09.38,2.75,1.13.66.76.99,1.81.99,3.17v1.09h-2.62v-.97c0-.7-.18-1.24-.55-1.61-.36-.37-.88-.56-1.55-.56s-1.23.21-1.6.63c-.36.42-.55,1.02-.55,1.79v7.08h-2.62Z"/><path class="cls-2" d="m16.2,45.37v-2.37h3.95v-6.8h-3.53v-2.37h6.15v9.18h3.55v2.37h-10.12Zm5.08-13.48c-.53,0-.95-.14-1.26-.41-.31-.27-.46-.64-.46-1.1s.15-.83.46-1.1c.31-.27.73-.41,1.26-.41s.95.14,1.26.41c.31.27.46.64.46,1.1s-.15.83-.46,1.1c-.31.27-.73.41-1.26.41Z"/></g></g></svg>